# xmcd
#
# Track frame offsets:
#	150
#	14533
#	32401
#	49521
#	64816
#	83841
#	96223
#	113641
#	124818
#	145577
#	159023
#	174879
#	186040
#	200912
#	208219
#	223221
#	237017
#	251651
#	271329
#	291015
#	311189
#	327756
#
# Disc length: 4607 seconds
#
# Revision: 131072
# Processed by: cddbd v1.5.2PL0 Copyright (c) Steve Scherf et al.
# Submitted via: EZCDAudioConverter 8.5.0.1
#
DISCID=3911fd16
DTITLE=Various Artist - Jon Savage's Rock Dreams On 45 (1969-1971) 2/2
DYEAR=2019
DGENRE=
TTITLE0=Delaney and Bonnie and Friends - Comin' Home
TTITLE1=Norman Greenbaum - Spirit In The Sky
TTITLE2=Jethro Tull - The Witch's Promise
TTITLE3=Toe Fat - Bad Side Of The Moon
TTITLE4=Faces - Flying
TTITLE5=King Crimson - Cat Food
TTITLE6=The Guess Who - American Woman
TTITLE7=MC5 - The American Ruse
TTITLE8=Fleetwood Mac - The Green Manalishi
TTITLE9=Quicksilver Messenger Service - Shady Grove
TTITLE10=Amon Düül ll - Archangel's Thunderbird
TTITLE11=The Rattles - The Witch
TTITLE12=Status Quo - Gerdundula
TTITLE13=Jack Nitzsche - Natural Magic
TTITLE14=Tangerine Dream - Ultima Thule, Teil 1
TTITLE15=Alice Cooper - Caught In A Dream
TTITLE16=The Velvet Underground - Sweet Jane
TTITLE17=John Kongos - He's Gonna Step On You Again
TTITLE18=Mountain - Travelin' In The Dark (For E.M.P)
TTITLE19=Crazy Horse - Beggars Day
TTITLE20=Detroit featuring Mitch Ryder - Rock 'N Roll
TTITLE21=The Flamin' Groovies - Yesterday's Numbers
EXTD=
EXTT0=
EXTT1=
EXTT2=
EXTT3=
EXTT4=
EXTT5=
EXTT6=
EXTT7=
EXTT8=
EXTT9=
EXTT10=
EXTT11=
EXTT12=
EXTT13=
EXTT14=
EXTT15=
EXTT16=
EXTT17=
EXTT18=
EXTT19=
EXTT20=
EXTT21=
PLAYORDER=
